<svg width="40" height="40" viewBox="0 0 40 40" fill="none" xmlns="http://www.w3.org/2000/svg">
<path d="M28.7495 18.75H21.2495V11.25C21.2495 10.9185 21.1178 10.6005 20.8834 10.3661C20.649 10.1317 20.331 10 19.9995 10C19.668 10 19.35 10.1317 19.1156 10.3661C18.8812 10.6005 18.7495 10.9185 18.7495 11.25V18.75H11.2495C10.918 18.75 10.6 18.8817 10.3656 19.1161C10.1312 19.3505 9.99951 19.6685 9.99951 20C9.99951 20.3315 10.1312 20.6495 10.3656 20.8839C10.6 21.1183 10.918 21.25 11.2495 21.25H18.7495V28.75C18.7495 29.0815 18.8812 29.3995 19.1156 29.6339C19.35 29.8683 19.668 30 19.9995 30C20.331 30 20.649 29.8683 20.8834 29.6339C21.1178 29.3995 21.2495 29.0815 21.2495 28.75V21.25H28.7495C29.081 21.25 29.399 21.1183 29.6334 20.8839C29.8678 20.6495 29.9995 20.3315 29.9995 20C29.9995 19.6685 29.8678 19.3505 29.6334 19.1161C29.399 18.8817 29.081 18.75 28.7495 18.75Z" fill="#565555"/>
<circle cx="20" cy="20" r="18.5" stroke="#2C2C2C" stroke-width="3"/>
</svg>
