<svg width="20" height="20" viewBox="0 0 20 20" fill="none" xmlns="http://www.w3.org/2000/svg">
<circle cx="10" cy="10" r="10" fill="white"/>
<path d="M7.9 5H12.1C13.7 5 15 6.3 15 7.9V12.1C15 12.8691 14.6945 13.6068 14.1506 14.1506C13.6068 14.6945 12.8691 15 12.1 15H7.9C6.3 15 5 13.7 5 12.1V7.9C5 7.13087 5.30553 6.39325 5.84939 5.84939C6.39325 5.30553 7.13087 5 7.9 5ZM7.8 6C7.32261 6 6.86477 6.18964 6.52721 6.52721C6.18964 6.86477 6 7.32261 6 7.8V12.2C6 13.195 6.805 14 7.8 14H12.2C12.6774 14 13.1352 13.8104 13.4728 13.4728C13.8104 13.1352 14 12.6774 14 12.2V7.8C14 6.805 13.195 6 12.2 6H7.8ZM12.625 6.75C12.7908 6.75 12.9497 6.81585 13.0669 6.93306C13.1842 7.05027 13.25 7.20924 13.25 7.375C13.25 7.54076 13.1842 7.69973 13.0669 7.81694C12.9497 7.93415 12.7908 8 12.625 8C12.4592 8 12.3003 7.93415 12.1831 7.81694C12.0658 7.69973 12 7.54076 12 7.375C12 7.20924 12.0658 7.05027 12.1831 6.93306C12.3003 6.81585 12.4592 6.75 12.625 6.75ZM10 7.5C10.663 7.5 11.2989 7.76339 11.7678 8.23223C12.2366 8.70107 12.5 9.33696 12.5 10C12.5 10.663 12.2366 11.2989 11.7678 11.7678C11.2989 12.2366 10.663 12.5 10 12.5C9.33696 12.5 8.70107 12.2366 8.23223 11.7678C7.76339 11.2989 7.5 10.663 7.5 10C7.5 9.33696 7.76339 8.70107 8.23223 8.23223C8.70107 7.76339 9.33696 7.5 10 7.5ZM10 8.5C9.60218 8.5 9.22064 8.65804 8.93934 8.93934C8.65804 9.22064 8.5 9.60218 8.5 10C8.5 10.3978 8.65804 10.7794 8.93934 11.0607C9.22064 11.342 9.60218 11.5 10 11.5C10.3978 11.5 10.7794 11.342 11.0607 11.0607C11.342 10.7794 11.5 10.3978 11.5 10C11.5 9.60218 11.342 9.22064 11.0607 8.93934C10.7794 8.65804 10.3978 8.5 10 8.5Z" fill="black"/>
</svg>
