<svg width="70" height="70" viewBox="0 0 70 70" fill="none" xmlns="http://www.w3.org/2000/svg">
<circle cx="35" cy="34.999" r="35" fill="#F6F6F6"/>
<path d="M28.7 19.999H41.3C46.1 19.999 50 23.899 50 28.699V41.299C50 43.6064 49.0834 45.8193 47.4518 47.4509C45.8203 49.0824 43.6074 49.999 41.3 49.999H28.7C23.9 49.999 20 46.099 20 41.299V28.699C20 26.3916 20.9166 24.1788 22.5482 22.5472C24.1797 20.9156 26.3926 19.999 28.7 19.999ZM28.4 22.999C26.9678 22.999 25.5943 23.568 24.5816 24.5806C23.5689 25.5933 23 26.9669 23 28.399V41.599C23 44.584 25.415 46.999 28.4 46.999H41.6C43.0322 46.999 44.4057 46.4301 45.4184 45.4174C46.4311 44.4047 47 43.0312 47 41.599V28.399C47 25.414 44.585 22.999 41.6 22.999H28.4ZM42.875 25.249C43.3723 25.249 43.8492 25.4466 44.2008 25.7982C44.5525 26.1498 44.75 26.6267 44.75 27.124C44.75 27.6213 44.5525 28.0982 44.2008 28.4498C43.8492 28.8015 43.3723 28.999 42.875 28.999C42.3777 28.999 41.9008 28.8015 41.5492 28.4498C41.1975 28.0982 41 27.6213 41 27.124C41 26.6267 41.1975 26.1498 41.5492 25.7982C41.9008 25.4466 42.3777 25.249 42.875 25.249ZM35 27.499C36.9891 27.499 38.8968 28.2892 40.3033 29.6957C41.7098 31.1022 42.5 33.0099 42.5 34.999C42.5 36.9881 41.7098 38.8958 40.3033 40.3023C38.8968 41.7088 36.9891 42.499 35 42.499C33.0109 42.499 31.1032 41.7088 29.6967 40.3023C28.2902 38.8958 27.5 36.9881 27.5 34.999C27.5 33.0099 28.2902 31.1022 29.6967 29.6957C31.1032 28.2892 33.0109 27.499 35 27.499ZM35 30.499C33.8065 30.499 32.6619 30.9731 31.818 31.817C30.9741 32.661 30.5 33.8055 30.5 34.999C30.5 36.1925 30.9741 37.3371 31.818 38.181C32.6619 39.0249 33.8065 39.499 35 39.499C36.1935 39.499 37.3381 39.0249 38.182 38.181C39.0259 37.3371 39.5 36.1925 39.5 34.999C39.5 33.8055 39.0259 32.661 38.182 31.817C37.3381 30.9731 36.1935 30.499 35 30.499Z" fill="black"/>
</svg>
