<svg width="43" height="43" viewBox="0 0 43 43" fill="none" xmlns="http://www.w3.org/2000/svg">
<circle cx="21.5" cy="21.5" r="21.5" fill="#6A6A6A"/>
<path d="M16.7667 10.4492H26.5667C30.3 10.4492 33.3333 13.4342 33.3333 17.1079V26.7516C33.3333 28.5176 32.6204 30.2113 31.3514 31.4601C30.0824 32.7088 28.3613 33.4104 26.5667 33.4104H16.7667C13.0333 33.4104 10 30.4254 10 26.7516V17.1079C10 15.3419 10.7129 13.6483 11.9819 12.3995C13.2509 11.1508 14.972 10.4492 16.7667 10.4492ZM16.5333 12.7453C15.4194 12.7453 14.3511 13.1808 13.5635 13.9559C12.7758 14.7309 12.3333 15.7822 12.3333 16.8783V26.9812C12.3333 29.2659 14.2117 31.1142 16.5333 31.1142H26.8C27.9139 31.1142 28.9822 30.6788 29.7699 29.9037C30.5575 29.1286 31 28.0774 31 26.9812V16.8783C31 14.5937 29.1217 12.7453 26.8 12.7453H16.5333ZM27.7917 14.4674C28.1784 14.4674 28.5494 14.6186 28.8229 14.8877C29.0964 15.1569 29.25 15.5219 29.25 15.9025C29.25 16.2831 29.0964 16.6481 28.8229 16.9172C28.5494 17.1864 28.1784 17.3376 27.7917 17.3376C27.4049 17.3376 27.034 17.1864 26.7605 16.9172C26.487 16.6481 26.3333 16.2831 26.3333 15.9025C26.3333 15.5219 26.487 15.1569 26.7605 14.8877C27.034 14.6186 27.4049 14.4674 27.7917 14.4674ZM21.6667 16.1895C23.2138 16.1895 24.6975 16.7943 25.7915 17.8708C26.8854 18.9473 27.5 20.4074 27.5 21.9298C27.5 23.4522 26.8854 24.9123 25.7915 25.9888C24.6975 27.0653 23.2138 27.6701 21.6667 27.6701C20.1196 27.6701 18.6358 27.0653 17.5419 25.9888C16.4479 24.9123 15.8333 23.4522 15.8333 21.9298C15.8333 20.4074 16.4479 18.9473 17.5419 17.8708C18.6358 16.7943 20.1196 16.1895 21.6667 16.1895ZM21.6667 18.4856C20.7384 18.4856 19.8482 18.8485 19.1918 19.4944C18.5354 20.1403 18.1667 21.0163 18.1667 21.9298C18.1667 22.8432 18.5354 23.7193 19.1918 24.3652C19.8482 25.0111 20.7384 25.374 21.6667 25.374C22.5949 25.374 23.4852 25.0111 24.1415 24.3652C24.7979 23.7193 25.1667 22.8432 25.1667 21.9298C25.1667 21.0163 24.7979 20.1403 24.1415 19.4944C23.4852 18.8485 22.5949 18.4856 21.6667 18.4856Z" fill="white"/>
</svg>
