<svg width="61" height="24" viewBox="0 0 61 24" fill="none" xmlns="http://www.w3.org/2000/svg">
<g clip-path="url(#clip0_101_147)">
<path d="M31.5477 7.64188C31.5129 10.9718 33.9932 12.8299 35.8616 13.9348C37.7812 15.0683 38.4259 15.7952 38.4183 16.809C38.404 18.3603 36.8871 19.0451 35.4677 19.0717C32.9912 19.1182 31.5513 18.2603 30.4066 17.6114L29.5145 22.6772C30.663 23.3194 32.7896 23.8795 34.9949 23.9041C40.1716 23.9041 43.5583 20.8031 43.5766 15.9953C43.5969 9.89355 36.6217 9.55581 36.6693 6.82849C36.6858 6.0015 37.3361 5.11899 38.761 4.89461C39.4663 4.78126 41.4133 4.69451 43.6207 5.92805L44.4871 1.02685C43.3 0.502319 41.7743 5.34058e-05 39.8747 5.34058e-05C35.0023 5.34058e-05 31.5754 3.14319 31.5477 7.64188ZM52.8122 0.422222C51.8669 0.422222 51.0703 1.09133 50.7148 2.11813L43.3202 23.5441H48.4931L49.5225 20.0918H55.8436L56.4407 23.5441H61L57.0214 0.422222H52.8122ZM53.5358 6.66829L55.0287 15.3508H50.9402L53.5358 6.66829ZM25.2759 0.422512L21.1985 23.5438H26.1278L30.2033 0.421934H25.2759M17.9838 0.421934L12.8531 16.1599L10.7777 2.77856C10.5342 1.28478 9.57247 0.422222 8.5045 0.422222H0.117473L0 1.09364C1.72182 1.54704 3.67811 2.27832 4.86332 3.06078C5.58865 3.53875 5.79548 3.95658 6.03376 5.09239L9.96468 23.5441H15.1737L23.16 0.422222L17.9838 0.421934Z" fill="url(#paint0_linear_101_147)"/>
</g>
<defs>
<linearGradient id="paint0_linear_101_147" x1="2804.41" y1="71.8555" x2="2888.35" y2="-2382.2" gradientUnits="userSpaceOnUse">
<stop stop-color="#222357"/>
<stop offset="1" stop-color="#254AA5"/>
</linearGradient>
<clipPath id="clip0_101_147">
<rect width="61" height="24" fill="white"/>
</clipPath>
</defs>
</svg>
