<svg width="61" height="40" viewBox="0 0 61 40" fill="none" xmlns="http://www.w3.org/2000/svg">
<g clip-path="url(#clip0_101_142)">
<path d="M11.0893 39.8012V37.1538C11.0893 36.1387 10.3569 35.477 9.10135 35.477C8.47371 35.477 7.79366 35.6535 7.32282 36.2271C6.95682 35.7417 6.43379 35.477 5.64913 35.477C5.12586 35.477 4.60307 35.6092 4.18441 36.0947V35.5652H3.08594V39.8012H4.18441V37.4625C4.18441 36.7125 4.65526 36.3594 5.38773 36.3594C6.11973 36.3594 6.48621 36.7566 6.48621 37.4625V39.8012H7.58469V37.4625C7.58469 36.7125 8.10748 36.3594 8.78753 36.3594C9.52001 36.3594 9.88601 36.7566 9.88601 37.4625V39.8012H11.0893ZM27.357 35.5652H25.5787V34.2856H24.4803V35.5652H23.4864V36.4034H24.48V38.3451C24.48 39.316 24.9509 39.8894 26.2064 39.8894C26.6772 39.8894 27.2 39.7572 27.5665 39.5807L27.2524 38.7863C26.9386 38.9628 26.5726 39.007 26.311 39.007C25.7879 39.007 25.5787 38.7423 25.5787 38.3009V36.4034H27.357V35.5652ZM36.6681 35.4768C36.0405 35.4768 35.6221 35.7417 35.3604 36.0947V35.5652H34.2619V39.8012H35.3604V37.4185C35.3604 36.7125 35.7264 36.3154 36.4065 36.3154C36.6157 36.3154 36.8773 36.3596 37.0865 36.4036L37.4003 35.5212C37.1911 35.477 36.8773 35.477 36.6681 35.477V35.4768ZM22.5971 35.9182C22.0739 35.6092 21.3416 35.477 20.557 35.477C19.3017 35.477 18.4648 36.0064 18.4648 36.8448C18.4648 37.5509 19.0925 37.9479 20.191 38.0804L20.714 38.1246C21.2894 38.2126 21.6033 38.3451 21.6033 38.5658C21.6033 38.8746 21.1848 39.0953 20.4524 39.0953C19.7201 39.0953 19.1447 38.8746 18.7784 38.6541L18.2554 39.36C18.8308 39.7129 19.6155 39.8894 20.3999 39.8894C21.8646 39.8894 22.7017 39.316 22.7017 38.5216C22.7017 37.7714 22.0217 37.3743 20.9754 37.242L20.4524 37.1978C19.9815 37.1536 19.6155 37.0655 19.6155 36.8008C19.6155 36.4918 19.9815 36.3154 20.557 36.3154C21.1848 36.3154 21.8125 36.5359 22.1263 36.6683L22.5971 35.9182ZM51.7854 35.477C51.1575 35.477 50.7391 35.7417 50.4775 36.0947V35.5652H49.379V39.8012H50.4775V37.4185C50.4775 36.7125 50.8437 36.3154 51.5235 36.3154C51.733 36.3154 51.9946 36.3596 52.2038 36.4036L52.5176 35.5212C52.3084 35.477 51.9946 35.477 51.7854 35.477ZM37.7666 37.6832C37.7666 38.9628 38.8126 39.8894 40.4344 39.8894C41.1666 39.8894 41.6896 39.7572 42.2127 39.4042L41.6896 38.6541C41.2712 38.9188 40.8528 39.051 40.382 39.051C39.4927 39.051 38.8651 38.5216 38.8651 37.6832C38.8651 36.889 39.4927 36.3594 40.382 36.3154C40.8528 36.3154 41.2712 36.4476 41.6896 36.7125L42.2127 35.9624C41.6896 35.6092 41.1666 35.477 40.4344 35.477C38.8126 35.477 37.7666 36.4036 37.7666 37.6832ZM47.9145 37.6832V35.5652H46.816V36.0947C46.4498 35.6977 45.9268 35.477 45.2467 35.477C43.8344 35.477 42.7359 36.4036 42.7359 37.6832C42.7359 38.9628 43.8344 39.8894 45.2467 39.8894C45.9789 39.8894 46.5022 39.6689 46.816 39.2717V39.8012H47.9145V37.6832ZM43.8866 37.6832C43.8866 36.9331 44.462 36.3154 45.4035 36.3154C46.2928 36.3154 46.9206 36.889 46.9206 37.6832C46.9206 38.4334 46.2928 39.051 45.4035 39.051C44.462 39.0068 43.8866 38.4334 43.8866 37.6832ZM30.7573 35.477C29.2926 35.477 28.2463 36.3594 28.2463 37.6832C28.2463 39.007 29.2923 39.8894 30.8095 39.8894C31.5417 39.8894 32.2742 39.713 32.8496 39.316L32.3264 38.6541C31.908 38.9188 31.3849 39.0953 30.8619 39.0953C30.1819 39.0953 29.5018 38.8305 29.3448 38.0802H33.0589V37.7274C33.1113 36.3594 32.1698 35.477 30.7573 35.477ZM30.7573 36.2711C31.4371 36.2711 31.9082 36.6243 32.0126 37.2862H29.3972C29.5018 36.7125 29.9726 36.2711 30.7573 36.2711ZM58.01 37.6832V33.8884H56.9115V36.0947C56.5453 35.6977 56.0223 35.477 55.3422 35.477C53.9299 35.477 52.8314 36.4036 52.8314 37.6832C52.8314 38.9628 53.9299 39.8894 55.3422 39.8894C56.0747 39.8894 56.5977 39.6689 56.9115 39.2717V39.8012H58.01V37.6832ZM53.9823 37.6832C53.9823 36.9331 54.5575 36.3154 55.4992 36.3154C56.3885 36.3154 57.0161 36.889 57.0161 37.6832C57.0161 38.4334 56.3885 39.051 55.4992 39.051C54.5575 39.0068 53.9823 38.4334 53.9823 37.6832ZM17.2615 37.6832V35.5652H16.1631V36.0947C15.7968 35.6977 15.2738 35.477 14.5937 35.477C13.1814 35.477 12.083 36.4036 12.083 37.6832C12.083 38.9628 13.1814 39.8894 14.5937 39.8894C15.3262 39.8894 15.8492 39.6689 16.1631 39.2717V39.8012H17.2615V37.6832ZM13.1814 37.6832C13.1814 36.9331 13.7569 36.3154 14.6983 36.3154C15.5876 36.3154 16.2155 36.889 16.2155 37.6832C16.2155 38.4334 15.5876 39.051 14.6983 39.051C13.7569 39.0068 13.1814 38.4334 13.1814 37.6832Z" fill="black"/>
<path d="M22.2305 3.39758H38.7076V28.3727H22.2305V3.39758Z" fill="#FF5F00"/>
<path d="M23.2775 15.8852C23.2775 10.8109 26.102 6.30995 30.4435 3.39759C27.2529 1.2796 23.2253 0 18.8314 0C8.42157 0 0 7.10412 0 15.8852C0 24.6661 8.42157 31.7705 18.8311 31.7705C23.225 31.7705 27.2527 30.4909 30.4435 28.3727C26.102 25.5045 23.2775 20.9596 23.2775 15.8852Z" fill="#EB001B"/>
<path d="M60.9396 15.8852C60.9396 24.6661 52.518 31.7705 42.1085 31.7705C37.7146 31.7705 33.6869 30.4909 30.4961 28.3727C34.89 25.4605 37.6624 20.9596 37.6624 15.8852C37.6624 10.8109 34.8376 6.30995 30.4961 3.39759C33.6867 1.2796 37.7146 0 42.1085 0C52.518 0 60.9396 7.14834 60.9396 15.8852Z" fill="#F79E1B"/>
</g>
<defs>
<clipPath id="clip0_101_142">
<rect width="61" height="40" fill="white"/>
</clipPath>
</defs>
</svg>
