<svg width="20" height="20" viewBox="0 0 20 20" fill="none" xmlns="http://www.w3.org/2000/svg">
<circle cx="10" cy="10" r="10" fill="white"/>
<path d="M11.9322 6.2022C11.5534 6.20212 11.1896 6.3812 10.9193 6.70092C10.6489 7.02064 10.4934 7.45545 10.4864 7.91183L10.4724 8.85796C10.4717 8.90881 10.462 8.95889 10.444 9.00492C10.4261 9.05094 10.4002 9.09187 10.3682 9.125C10.3362 9.15814 10.2987 9.18273 10.2582 9.19717C10.2178 9.21161 10.1752 9.21556 10.1334 9.20877L9.35459 9.08082C8.33101 8.91262 7.3498 8.34495 6.40799 7.40002C6.11034 9.38839 6.69218 10.7658 8.09468 11.8285L8.9657 12.4881C9.00701 12.5194 9.04134 12.5624 9.06569 12.6134C9.09004 12.6643 9.10367 12.7217 9.10539 12.7805C9.10711 12.8392 9.09687 12.8976 9.07556 12.9505C9.05426 13.0034 9.02253 13.0492 8.98315 13.084L8.18941 13.7832C8.66156 13.8193 9.10979 13.794 9.48173 13.7051C11.834 13.1392 13.3981 11.0067 13.3981 7.48893C13.3981 7.20179 12.893 6.2022 11.9322 6.2022ZM9.48921 7.89021C9.49791 7.31115 9.6482 6.74805 9.92125 6.27142C10.1943 5.79478 10.578 5.42579 11.0243 5.21064C11.4706 4.9955 11.9596 4.94375 12.4302 5.06189C12.9008 5.18003 13.332 5.46281 13.6698 5.87481C14.0243 5.87181 14.3259 5.97994 15 5.48675C14.8335 6.47192 14.7507 6.90023 14.3952 7.48833C14.3952 12.0784 12.0534 14.3112 9.67667 14.8825C8.04781 15.2742 5.67807 14.6308 5 13.776C5.34552 13.7442 6.75151 13.5621 7.56419 12.8449C6.87615 12.2982 4.13995 10.3579 5.93833 5.14254C6.78242 6.33015 7.63848 7.13811 8.50601 7.56762C9.08286 7.85296 9.22496 7.84696 9.4897 7.89081L9.48921 7.89021Z" fill="black"/>
</svg>
