<svg width="70" height="70" viewBox="0 0 70 70" fill="none" xmlns="http://www.w3.org/2000/svg">
<circle cx="35" cy="34.999" r="35" fill="#F6F6F6"/>
<path d="M54 26.5284C52.7118 27.1461 51.3231 27.552 49.8843 27.7461C51.3566 26.8108 52.4943 25.3284 53.0296 23.5461C51.641 24.4284 50.1018 25.0461 48.479 25.399C47.1573 23.8814 45.3002 22.999 43.1922 22.999C39.2605 22.999 36.0483 26.3873 36.0483 30.5696C36.0483 31.1696 36.1152 31.752 36.2323 32.299C30.2763 31.9814 24.9728 28.9637 21.4426 24.3931C20.8236 25.5049 20.4723 26.8108 20.4723 28.1873C20.4723 30.8167 21.7271 33.1461 23.6678 34.4696C22.4799 34.4696 21.3757 34.1167 20.4054 33.5873V33.6402C20.4054 37.3108 22.8815 40.3814 26.1606 41.0696C25.1078 41.3735 24.0025 41.4158 22.9316 41.1931C23.3861 42.6975 24.276 44.0139 25.4764 44.9571C26.6767 45.9004 28.1272 46.4232 29.6238 46.452C27.0869 48.5704 23.9422 49.7155 20.7065 49.699C20.1377 49.699 19.5688 49.6637 19 49.5931C22.1788 51.7461 25.9598 52.999 30.0086 52.999C43.1922 52.999 50.4364 41.4578 50.4364 31.452C50.4364 31.1167 50.4364 30.799 50.4197 30.4637C51.825 29.4049 53.0296 28.0637 54 26.5284Z" fill="black"/>
</svg>
