<svg width="70" height="70" viewBox="0 0 70 70" fill="none" xmlns="http://www.w3.org/2000/svg">
<circle cx="35" cy="34.999" r="35" fill="#F6F6F6"/>
<path d="M30.8 44.4276L41.699 37.999L30.8 31.5705V44.4276ZM55.076 27.649C55.349 28.6562 55.538 30.0062 55.664 31.7205C55.811 33.4347 55.874 34.9133 55.874 36.199L56 37.999C56 42.6919 55.664 46.1419 55.076 48.349C54.551 50.2776 53.333 51.5205 51.443 52.0562C50.456 52.3347 48.65 52.5276 45.878 52.6562C43.148 52.8062 40.649 52.8705 38.339 52.8705L35 52.999C26.201 52.999 20.72 52.6562 18.557 52.0562C16.667 51.5205 15.449 50.2776 14.924 48.349C14.651 47.3419 14.462 45.9919 14.336 44.2776C14.189 42.5633 14.126 41.0847 14.126 39.799L14 37.999C14 33.3062 14.336 29.8562 14.924 27.649C15.449 25.7205 16.667 24.4776 18.557 23.9419C19.544 23.6633 21.35 23.4705 24.122 23.3419C26.852 23.1919 29.351 23.1276 31.661 23.1276L35 22.999C43.799 22.999 49.28 23.3419 51.443 23.9419C53.333 24.4776 54.551 25.7205 55.076 27.649Z" fill="black"/>
</svg>
