<svg width="43" height="43" viewBox="0 0 43 43" fill="none" xmlns="http://www.w3.org/2000/svg">
<circle cx="21.5" cy="21.5" r="21.5" fill="#6A6A6A"/>
<path d="M18.816 24.8462L25.563 21.1703L18.816 17.4944V24.8462ZM33.844 15.2521C34.013 15.828 34.13 16.6 34.208 17.5802C34.299 18.5604 34.338 19.4059 34.338 20.141L34.416 21.1703C34.416 23.8537 34.208 25.8264 33.844 27.0884C33.519 28.1912 32.765 28.9019 31.595 29.2082C30.984 29.3675 29.866 29.4777 28.15 29.5513C26.46 29.637 24.913 29.6738 23.483 29.6738L21.416 29.7473C15.969 29.7473 12.576 29.5513 11.237 29.2082C10.067 28.9019 9.31302 28.1912 8.98802 27.0884C8.81902 26.5125 8.70202 25.7406 8.62402 24.7604C8.53302 23.7802 8.49402 22.9347 8.49402 22.1995L8.41602 21.1703C8.41602 18.4869 8.62402 16.5142 8.98802 15.2521C9.31302 14.1494 10.067 13.4387 11.237 13.1324C11.848 12.9731 12.966 12.8628 14.682 12.7893C16.372 12.7035 17.919 12.6668 19.349 12.6668L21.416 12.5933C26.863 12.5933 30.256 12.7893 31.595 13.1324C32.765 13.4387 33.519 14.1494 33.844 15.2521Z" fill="white"/>
</svg>
